<svg xmlns="http://www.w3.org/2000/svg"  viewBox="0 0 350.00000000000006 227.16542057151833" ><defs id="SvgjsDefs1300"></defs><g id="SvgjsG1301" transform="matrix(0.4460457186360735,0,0,0.4460457186360735,104.941646900567,0)" fill="#649dad"><defs xmlns="http://www.w3.org/2000/svg"></defs><g xmlns="http://www.w3.org/2000/svg"><path class="fil0" d="M301 191c-3,31 -17,59 -38,80 -24,24 -58,39 -95,39l0 -11c34,0 65,-14 88,-36 18,-19 31,-44 35,-72l-12 0 17 -30 18 30 -13 0zm-65 43c-19,19 -46,31 -75,33l-9 0c-29,-2 -55,-14 -74,-33 -68,-68 -24,-187 74,-191l9 0c99,4 143,123 75,191zm-31 -41c5,2 9,8 9,14 0,1 0,2 -1,3 8,4 14,9 20,14 17,-18 27,-42 27,-69l0 0 -52 0c0,12 -1,25 -3,38zm5 25c-3,3 -8,5 -12,5l-1 0c-4,12 -9,24 -18,33 18,-5 35,-13 48,-25 -5,-5 -11,-10 -17,-13zm-21 3c-5,-3 -8,-8 -8,-14 0,0 0,-1 0,-1 -6,-2 -13,-3 -20,-3l0 54c14,-3 23,-21 28,-36zm-5 -23c3,-4 8,-7 13,-7 1,-12 2,-24 2,-36l-38 0 0 39c8,1 16,2 23,4zm14 1c-5,0 -8,4 -8,8 0,4 3,7 8,7 4,0 7,-3 7,-7 0,-4 -3,-8 -7,-8zm-82 -69c7,2 13,8 15,16l21 0 0 -36c-11,-1 -22,-3 -32,-6 -2,8 -3,17 -4,26zm14 25c-1,7 -7,13 -15,15 1,11 2,21 4,31 11,-4 22,-6 33,-7l0 -39 -22 0zm-24 15c-8,-1 -14,-7 -16,-15l-36 0 0 0c0,27 10,51 27,69 8,-8 19,-15 30,-20 -3,-11 -4,-22 -5,-34zm-16 -24c1,-9 8,-15 17,-17 1,-10 3,-20 5,-28 -10,-5 -20,-11 -29,-19 -16,17 -27,39 -29,64l36 0zm20 -8c-7,0 -12,5 -12,12 0,7 5,12 12,12 7,0 12,-5 12,-12 0,-7 -5,-12 -12,-12zm86 -57c5,0 9,3 13,6 5,-3 11,-7 15,-10 -13,-11 -28,-19 -45,-23 7,8 13,17 17,27l0 0zm16 14c0,1 0,2 0,3 0,5 -3,11 -8,14 2,10 3,22 4,34l52 0c-2,-25 -13,-47 -30,-64 -3,3 -11,9 -18,13zm-16 19c-5,0 -10,-3 -13,-7l0 0c-7,2 -14,3 -22,3l0 36 38 0c0,-11 -2,-22 -3,-32zm-16 -15c0,-1 0,-1 0,-1 0,-6 3,-11 7,-14l0 0c-5,-13 -14,-29 -26,-32l0 49c7,0 13,-1 19,-2zm16 -9c-4,0 -7,3 -7,8 0,4 3,7 7,7 4,0 8,-3 8,-7 0,-5 -4,-8 -8,-8zm-82 2c4,-13 11,-28 20,-38 -16,4 -32,12 -44,23 7,6 15,11 24,15l0 0zm38 9l0 -49c-15,4 -25,29 -30,43 10,4 20,6 30,6zm-31 108c4,16 15,44 31,48l0 -54c-11,1 -21,3 -31,6zm-34 22c13,12 29,20 47,25 -10,-12 -17,-28 -21,-43 -10,4 -19,10 -26,18zm-33 28c-25,-19 -42,-45 -49,-73 -9,-33 -6,-69 13,-101l9 5c-17,29 -21,63 -12,93 7,26 22,50 44,67l6 -11 18 31 -35 0 6 -11zm65 -248c29,-12 60,-14 88,-6 33,8 63,30 81,62l-9 5c-17,-29 -44,-49 -75,-57 -26,-7 -54,-6 -80,5l6 10 -34 0 17 -30 6 11z" style="fill: #649dad; fill-rule: nonzero;"></path></g></g><g id="SvgjsG1302" transform="matrix(2.7309605700423,0,0,2.7309605700423,-0.9284706893604979,145.65616896449333)" fill="#649dad"><path d="M6.78 11.78 l-2.58 0 l0 7.64 c0 0.24 -0.08666 0.44666 -0.26 0.62 s-0.38 0.26 -0.62 0.26 c-0.25334 0 -0.46668 -0.08666 -0.64002 -0.26 s-0.26 -0.38 -0.26 -0.62 l0 -7.64 l-1.2 0 c-0.24 0 -0.44666 -0.08666 -0.62 -0.26 s-0.26 -0.38668 -0.26 -0.64002 c0 -0.24 0.08666 -0.44666 0.26 -0.62 s0.38 -0.26 0.62 -0.26 l1.2 0 l0 -2.86 c0 -0.36 0.07 -0.7 0.21 -1.02 s0.32666 -0.59666 0.56 -0.83 s0.51 -0.42 0.83 -0.56 s0.66 -0.21 1.02 -0.21 s0.7 0.07 1.02 0.21 s0.59666 0.32666 0.83 0.56 s0.42 0.51 0.56 0.83 s0.21 0.66 0.21 1.02 c0 0.24 -0.08666 0.44666 -0.26 0.62 s-0.38 0.26 -0.62 0.26 s-0.44666 -0.08666 -0.62 -0.26 s-0.26 -0.38 -0.26 -0.62 c0 -0.22666 -0.08666 -0.42666 -0.26 -0.6 s-0.37334 -0.26 -0.6 -0.26 s-0.42332 0.08666 -0.58998 0.26 s-0.25 0.37334 -0.25 0.6 l0 2.86 l2.58 0 c0.24 0 0.44666 0.08666 0.62 0.26 s0.26 0.38 0.26 0.62 c0 0.25334 -0.08666 0.46668 -0.26 0.64002 s-0.38 0.26 -0.62 0.26 z M11.059999999999999 10.58 c0.21334 -0.18666 0.45006 -0.33002 0.71006 -0.43002 s0.52334 -0.15 0.79 -0.15 c0.65334 0 1.19 0.16 1.61 0.48 s0.74334 0.78 0.97 1.38 c0.05334 0.13334 0.07334 0.27334 0.06 0.42 s-0.05668 0.28 -0.13002 0.4 s-0.17334 0.21666 -0.3 0.29 s-0.27666 0.11 -0.45 0.11 c-0.14666 0 -0.27666 -0.03334 -0.39 -0.1 s-0.21 -0.14666 -0.29 -0.24 c-0.06666 -0.08 -0.12332 -0.16334 -0.16998 -0.25 s-0.09666 -0.17666 -0.15 -0.27 c-0.09334 -0.14666 -0.19668 -0.26666 -0.31002 -0.36 s-0.30334 -0.12668 -0.57 -0.10002 c-0.17334 0.01334 -0.34 0.06668 -0.5 0.16002 s-0.3 0.20668 -0.42 0.34002 s-0.21666 0.28334 -0.29 0.45 s-0.11 0.33666 -0.11 0.51 l0 6.2 c0 0.24 -0.08666 0.44666 -0.26 0.62 s-0.38 0.26 -0.62 0.26 c-0.25334 0 -0.46668 -0.08666 -0.64002 -0.26 s-0.26 -0.38 -0.26 -0.62 l0 -8.54 c0 -0.24 0.08666 -0.44666 0.26 -0.62 s0.38668 -0.26 0.64002 -0.26 c0.18666 0 0.35332 0.05334 0.49998 0.16 s0.25332 0.24666 0.31998 0.42 z M25.68 15.620000000000001 l-7.58 -0.000058594 c0.05334 0.41334 0.17668 0.79668 0.37002 1.15 s0.44 0.66 0.74 0.92 s0.64 0.46334 1.02 0.61 s0.78334 0.22 1.21 0.22 c0.25334 0 0.48334 -0.02 0.69 -0.06 s0.4 -0.10334 0.58 -0.19 s0.36 -0.19332 0.54 -0.31998 s0.37666 -0.27 0.59 -0.43 c0.08 -0.06666 0.16334 -0.12332 0.25 -0.16998 s0.20332 -0.07 0.34998 -0.07 c0.25334 0 0.46668 0.08666 0.64002 0.26 s0.26 0.38 0.26 0.62 c0 0.14666 -0.02666 0.26666 -0.08 0.36 s-0.11334 0.18 -0.18 0.26 c-0.21334 0.24 -0.46334 0.45666 -0.75 0.65 s-0.59332 0.35334 -0.91998 0.48 s-0.66 0.22332 -1 0.28998 s-0.66334 0.1 -0.97 0.1 c-0.70666 0 -1.3733 -0.13666 -2 -0.41 s-1.1733 -0.64334 -1.64 -1.11 s-0.83666 -1.01 -1.11 -1.63 s-0.41 -1.2833 -0.41 -1.99 s0.13666 -1.3733 0.41 -2 s0.64334 -1.1733 1.11 -1.64 s1.0133 -0.83666 1.64 -1.11 s1.2933 -0.41 2 -0.41 c0.68 0 1.32 0.11334 1.92 0.34 s1.1333 0.55 1.6 0.97 s0.84 0.92 1.12 1.5 s0.44 1.2167 0.48 1.91 c0.01334 0.26666 -0.07 0.48332 -0.25 0.64998 s-0.39 0.25 -0.63 0.25 z M21.44 11.78 c-0.69334 0 -1.32 0.19 -1.88 0.57 s-0.97334 0.87666 -1.24 1.49 l6.22 0 c-0.25334 -0.62666 -0.66334 -1.1267 -1.23 -1.5 s-1.19 -0.56 -1.87 -0.56 z M37.519999999999996 15.620000000000001 l-7.58 -0.000058594 c0.05334 0.41334 0.17668 0.79668 0.37002 1.15 s0.44 0.66 0.74 0.92 s0.64 0.46334 1.02 0.61 s0.78334 0.22 1.21 0.22 c0.25334 0 0.48334 -0.02 0.69 -0.06 s0.4 -0.10334 0.58 -0.19 s0.36 -0.19332 0.54 -0.31998 s0.37666 -0.27 0.59 -0.43 c0.08 -0.06666 0.16334 -0.12332 0.25 -0.16998 s0.20332 -0.07 0.34998 -0.07 c0.25334 0 0.46668 0.08666 0.64002 0.26 s0.26 0.38 0.26 0.62 c0 0.14666 -0.02666 0.26666 -0.08 0.36 s-0.11334 0.18 -0.18 0.26 c-0.21334 0.24 -0.46334 0.45666 -0.75 0.65 s-0.59332 0.35334 -0.91998 0.48 s-0.66 0.22332 -1 0.28998 s-0.66334 0.1 -0.97 0.1 c-0.70666 0 -1.3733 -0.13666 -2 -0.41 s-1.1733 -0.64334 -1.64 -1.11 s-0.83666 -1.01 -1.11 -1.63 s-0.41 -1.2833 -0.41 -1.99 s0.13666 -1.3733 0.41 -2 s0.64334 -1.1733 1.11 -1.64 s1.0133 -0.83666 1.64 -1.11 s1.2933 -0.41 2 -0.41 c0.68 0 1.32 0.11334 1.92 0.34 s1.1333 0.55 1.6 0.97 s0.84 0.92 1.12 1.5 s0.44 1.2167 0.48 1.91 c0.01334 0.26666 -0.07 0.48332 -0.25 0.64998 s-0.39 0.25 -0.63 0.25 z M33.28 11.78 c-0.69334 0 -1.32 0.19 -1.88 0.57 s-0.97334 0.87666 -1.24 1.49 l6.22 0 c-0.25334 -0.62666 -0.66334 -1.1267 -1.23 -1.5 s-1.19 -0.56 -1.87 -0.56 z M49.379999999999995 20.3 c-0.25334 0 -0.46668 -0.0867 -0.64002 -0.26004 s-0.26 -0.38 -0.26 -0.62 l0 -0.38 c-0.46666 0.4 -0.98666 0.71 -1.56 0.93 s-1.1733 0.33 -1.8 0.33 c-0.70666 0 -1.3733 -0.13666 -2 -0.41 s-1.1733 -0.64334 -1.64 -1.11 s-0.83666 -1.01 -1.11 -1.63 s-0.41 -1.2833 -0.41 -1.99 s0.13666 -1.3733 0.41 -2 s0.64334 -1.1733 1.11 -1.64 s1.0133 -0.83666 1.64 -1.11 s1.2933 -0.41 2 -0.41 c0.62666 0 1.2267 0.11 1.8 0.33 s1.0933 0.53666 1.56 0.95 l0 -5.88 c0 -0.24 0.08666 -0.44666 0.26 -0.62 s0.38668 -0.26 0.64002 -0.26 c0.24 0 0.44666 0.08666 0.62 0.26 s0.26 0.38 0.26 0.62 l0 14.02 c0 0.24 -0.08666 0.44666 -0.26 0.62 s-0.38 0.26 -0.62 0.26 z M45.12 11.78 c-0.46666 0 -0.90332 0.09 -1.31 0.27 s-0.76332 0.42334 -1.07 0.73 s-0.55 0.66332 -0.73 1.07 s-0.27 0.84332 -0.27 1.31 s0.09 0.90332 0.27 1.31 s0.42334 0.76 0.73 1.06 s0.66332 0.54 1.07 0.72 s0.84332 0.27 1.31 0.27 c0.45334 0 0.88668 -0.09 1.3 -0.27 s0.77 -0.42 1.07 -0.72 s0.54 -0.65334 0.72 -1.06 s0.27 -0.84332 0.27 -1.31 s-0.09 -0.90332 -0.27 -1.31 s-0.42 -0.76332 -0.72 -1.07 s-0.65666 -0.55 -1.07 -0.73 s-0.84668 -0.27 -1.3 -0.27 z M57.86 20.3 c-0.70666 0 -1.3733 -0.13666 -2 -0.41 s-1.1733 -0.64334 -1.64 -1.11 s-0.83666 -1.01 -1.11 -1.63 s-0.41 -1.2833 -0.41 -1.99 s0.13666 -1.3733 0.41 -2 s0.64334 -1.1733 1.11 -1.64 s1.0133 -0.83666 1.64 -1.11 s1.2933 -0.41 2 -0.41 s1.37 0.13666 1.99 0.41 s1.1633 0.64334 1.63 1.11 s0.83666 1.0133 1.11 1.64 s0.41 1.2933 0.41 2 s-0.13666 1.37 -0.41 1.99 s-0.64334 1.1633 -1.11 1.63 s-1.01 0.83666 -1.63 1.11 s-1.2833 0.41 -1.99 0.41 z M57.86 11.78 c-0.46666 0 -0.90326 0.09 -1.3099 0.27 s-0.76332 0.42334 -1.07 0.73 s-0.55 0.66332 -0.73 1.07 s-0.27 0.84332 -0.27 1.31 s0.09 0.90332 0.27 1.31 s0.42334 0.76332 0.73 1.07 s0.66332 0.54666 1.07 0.72 s0.84332 0.26 1.31 0.26 s0.90332 -0.08666 1.31 -0.26 s0.76332 -0.41334 1.07 -0.72 s0.54666 -0.66332 0.72 -1.07 s0.26 -0.84332 0.26 -1.31 s-0.09 -0.90332 -0.27 -1.31 s-0.42 -0.76332 -0.72 -1.07 s-0.65666 -0.55 -1.07 -0.73 s-0.84668 -0.27 -1.3 -0.27 z M67.18 10.6 c0.62666 -0.4 1.3 -0.59998 2.02 -0.59998 c0.56 0 1.0867 0.11666 1.58 0.35 s0.91334 0.55668 1.26 0.97002 c0.34666 -0.41334 0.76666 -0.73668 1.26 -0.97002 s1.0133 -0.35 1.56 -0.35 c0.52 0 1.0033 0.09666 1.45 0.29 s0.84 0.46 1.18 0.8 s0.60666 0.73666 0.8 1.19 s0.29 0.93334 0.29 1.44 l0 5.7 c0 0.24 -0.08666 0.44666 -0.26 0.62 s-0.38 0.26 -0.62 0.26 s-0.44666 -0.08666 -0.62 -0.26 s-0.26 -0.38 -0.26 -0.62 l0 -5.7 c0 -0.26666 -0.05 -0.51666 -0.15 -0.75 s-0.24 -0.44 -0.42 -0.62 s-0.39 -0.32 -0.63 -0.42 s-0.49334 -0.15 -0.76 -0.15 s-0.51666 0.05 -0.75 0.15 s-0.44 0.24 -0.62 0.42 s-0.32 0.38666 -0.42 0.62 s-0.15 0.48334 -0.15 0.75 l0 5.7 c0 0.24 -0.08666 0.44666 -0.26 0.62 s-0.38 0.26 -0.62 0.26 c-0.25334 0 -0.46668 -0.08666 -0.64002 -0.26 s-0.26 -0.38 -0.26 -0.62 l0 -5.7 c0 -0.26666 -0.05 -0.51666 -0.15 -0.75 s-0.24 -0.44 -0.42 -0.62 s-0.38666 -0.32 -0.62 -0.42 s-0.48334 -0.15 -0.75 -0.15 s-0.52 0.05 -0.76 0.15 s-0.44666 0.24 -0.62 0.42 s-0.31 0.38666 -0.41 0.62 s-0.15 0.48334 -0.15 0.75 c0 0.04 -0.01334 0.1 -0.04 0.18 l0 5.52 c0 0.24 -0.08666 0.44666 -0.26 0.62 s-0.38 0.26 -0.62 0.26 c-0.25334 0 -0.46668 -0.08666 -0.64002 -0.26 s-0.26 -0.38 -0.26 -0.62 l0 -8.66 c0 -0.25334 0.08666 -0.46668 0.26 -0.64002 s0.38668 -0.26 0.64002 -0.26 c0.48 0 0.76 0.24666 0.84 0.74 z M95.77999999999999 13.02 c-0.13334 0 -0.24668 -0.0233 -0.34002 -0.069962 s-0.18 -0.10332 -0.26 -0.16998 c-0.38666 -0.33334 -0.76 -0.58334 -1.12 -0.75 s-0.78666 -0.25 -1.28 -0.25 c-0.46666 0 -0.90332 0.09 -1.31 0.27 s-0.76332 0.42334 -1.07 0.73 s-0.55 0.66332 -0.73 1.07 s-0.27 0.84332 -0.27 1.31 s0.09 0.90332 0.27 1.31 s0.42334 0.76332 0.73 1.07 s0.66332 0.54666 1.07 0.72 s0.84332 0.26 1.31 0.26 c0.49334 0 0.92 -0.08334 1.28 -0.25 s0.73334 -0.41666 1.12 -0.75 c0.08 -0.06666 0.16666 -0.12332 0.26 -0.16998 s0.20668 -0.07 0.34002 -0.07 c0.25334 0 0.46668 0.08666 0.64002 0.26 s0.26 0.38 0.26 0.62 c0 0.13334 -0.02666 0.25 -0.08 0.35 s-0.11334 0.19 -0.18 0.27 c-0.22666 0.24 -0.48332 0.45666 -0.76998 0.65 s-0.59 0.35334 -0.91 0.48 s-0.64666 0.22332 -0.98 0.28998 s-0.66 0.1 -0.98 0.1 c-0.70666 0 -1.3733 -0.13666 -2 -0.41 s-1.1733 -0.64334 -1.64 -1.11 s-0.83666 -1.01 -1.11 -1.63 s-0.41 -1.2833 -0.41 -1.99 s0.13666 -1.3733 0.41 -2 s0.64334 -1.1733 1.11 -1.64 s1.0133 -0.83666 1.64 -1.11 s1.2933 -0.41 2 -0.41 c0.32 0 0.64666 0.03334 0.98 0.1 s0.66 0.16332 0.98 0.28998 s0.62334 0.28666 0.91 0.48 s0.54332 0.41 0.76998 0.65 c0.06666 0.08 0.12666 0.17 0.18 0.27 s0.08 0.21666 0.08 0.35 c0 0.24 -0.08666 0.44666 -0.26 0.62 s-0.38668 0.26 -0.64002 0.26 z M106.43999999999998 20.3 c-0.25334 0 -0.46664 -0.08666 -0.63998 -0.26 s-0.26 -0.38 -0.26 -0.62 l0 -5.24 c0 -0.33334 -0.06334 -0.64334 -0.19 -0.93 s-0.3 -0.54 -0.52 -0.76 s-0.47334 -0.39334 -0.76 -0.52 s-0.59666 -0.19 -0.93 -0.19 c-0.32 0 -0.62666 0.06334 -0.92 0.19 s-0.54668 0.3 -0.76002 0.52 s-0.38334 0.47334 -0.51 0.76 s-0.19 0.59666 -0.19 0.93 c0 0.05334 -0.01334 0.10668 -0.04 0.16002 l0 5.08 c0 0.24 -0.08666 0.44666 -0.26 0.62 s-0.38 0.26 -0.62 0.26 c-0.25334 0 -0.46668 -0.08666 -0.64002 -0.26 s-0.26 -0.38 -0.26 -0.62 l0 -14.02 c0 -0.24 0.08666 -0.44666 0.26 -0.62 s0.38668 -0.26 0.64002 -0.26 c0.24 0 0.44666 0.08666 0.62 0.26 s0.26 0.38 0.26 0.62 l0 5.38 c0.34666 -0.25334 0.73 -0.44668 1.15 -0.58002 s0.84334 -0.2 1.27 -0.2 c0.57334 0 1.1133 0.11 1.62 0.33 s0.95 0.52 1.33 0.9 s0.68 0.82334 0.9 1.33 s0.33 1.0467 0.33 1.62 l0 5.24 c0 0.24 -0.08666 0.44666 -0.26 0.62 s-0.38 0.26 -0.62 0.26 z M118.74 20.3 c-0.25334 0 -0.46668 -0.0867 -0.64002 -0.26004 s-0.26 -0.38 -0.26 -0.62 l0 -0.38 c-0.46666 0.4 -0.98666 0.71 -1.56 0.93 s-1.1733 0.33 -1.8 0.33 c-0.70666 0 -1.3733 -0.13666 -2 -0.41 s-1.1733 -0.64334 -1.64 -1.11 s-0.83666 -1.01 -1.11 -1.63 s-0.41 -1.2833 -0.41 -1.99 s0.13666 -1.3733 0.41 -2 s0.64334 -1.1733 1.11 -1.64 s1.0133 -0.83666 1.64 -1.11 s1.2933 -0.41 2 -0.41 c0.62666 0 1.2267 0.11 1.8 0.33 s1.0933 0.53 1.56 0.93 l0 -0.38 c0 -0.24 0.08666 -0.44666 0.26 -0.62 s0.38668 -0.26 0.64002 -0.26 c0.24 0 0.44666 0.08666 0.62 0.26 s0.26 0.38 0.26 0.62 l0 8.54 c0 0.24 -0.08666 0.44666 -0.26 0.62 s-0.38 0.26 -0.62 0.26 z M114.47999999999999 11.78 c-0.46666 0 -0.90332 0.09 -1.31 0.27 s-0.76332 0.42334 -1.07 0.73 s-0.55 0.66332 -0.73 1.07 s-0.27 0.84332 -0.27 1.31 s0.09 0.90332 0.27 1.31 s0.42334 0.76332 0.73 1.07 s0.66332 0.54666 1.07 0.72 s0.84332 0.26 1.31 0.26 s0.90332 -0.08666 1.31 -0.26 s0.76332 -0.41334 1.07 -0.72 s0.54666 -0.66332 0.72 -1.07 s0.26 -0.84332 0.26 -1.31 s-0.08666 -0.90332 -0.26 -1.31 s-0.41334 -0.76332 -0.72 -1.07 s-0.66332 -0.55 -1.07 -0.73 s-0.84332 -0.27 -1.31 -0.27 z M127.6 11.78 l-1.62 0 l0 7.64 c0 0.24 -0.08666 0.44666 -0.26 0.62 s-0.38668 0.26 -0.64002 0.26 c-0.24 0 -0.44666 -0.08666 -0.62 -0.26 s-0.26 -0.38 -0.26 -0.62 l0 -7.64 l-1.64 0 c-0.24 0 -0.44666 -0.08666 -0.62 -0.26 s-0.26 -0.38 -0.26 -0.62 c0 -0.25334 0.08666 -0.46668 0.26 -0.64002 s0.38 -0.26 0.62 -0.26 l1.64 0 l0 -2.94 c0 -0.25334 0.08666 -0.46334 0.26 -0.63 s0.38 -0.25 0.62 -0.25 c0.25334 0 0.46668 0.08334 0.64002 0.25 s0.26 0.37666 0.26 0.63 l0 2.94 l1.62 0 c0.25334 0 0.46668 0.08666 0.64002 0.26 s0.26 0.38668 0.26 0.64002 c0 0.24 -0.08666 0.44666 -0.26 0.62 s-0.38668 0.26 -0.64002 0.26 z"></path></g><g id="SvgjsG1303"  transform="matrix(1.0849275829117686,0,0,1.0849275829117686,42.26224994719394,205.22818817667195)" fill="#649dad"><path d="M8.14 18.46 c1.78 0 3.44 -0.82 4.54 -2.26 l1.4 1.04 c-1.42 1.9 -3.6 2.98 -5.94 2.98 c-4.12 0 -7.46 -3.34 -7.46 -7.46 c0 -4.1 3.34 -7.44 7.46 -7.44 c2.36 0 4.54 1.1 5.96 3 l-1.42 1.04 c-1.08 -1.46 -2.74 -2.28 -4.54 -2.28 c-3.16 0 -5.7 2.54 -5.7 5.68 c0 3.16 2.54 5.7 5.7 5.7 z M29.439999999999998 5.32 c4.1 0 7.46 3.34 7.46 7.46 c0 4.1 -3.36 7.42 -7.46 7.42 s-7.44 -3.32 -7.44 -7.42 c0 -4.12 3.34 -7.46 7.44 -7.46 z M29.439999999999998 18.44 c3.12 0 5.64 -2.56 5.64 -5.66 c0 -3.12 -2.52 -5.7 -5.64 -5.7 s-5.64 2.58 -5.64 5.7 c0 3.1 2.52 5.66 5.64 5.66 z M55.08 20 l-7.62 -11.26 l0 11.26 l-1.8 0 l0 -14.24 l1.96 0 l7.6 11.26 l0 -11.26 l1.8 0 l0 14.24 l-1.94 0 z M65.7 5.76 l1.94 0 l4.48 11.66 l4.5 -11.66 l1.92 0 l-5.48 14.24 l-1.86 0 z M86.66 20 l0 -14.24 l9 0 l0 1.72 l-7.2 0 l0 3.34 l6.28 0 l0 1.78 l-6.28 0 l0 5.64 l7.02 0 l0 1.76 l-8.82 0 z M110.26 12.42 l5.5 7.58 l-2.06 0 l-5.44 -7.48 l-2.04 0 l0 7.48 l-1.72 0 l0 -14.24 l4.94 0 c0.9 0 1.74 0.36 2.38 1 s1 1.48 1 2.38 c0 1.58 -1.1 2.9 -2.56 3.28 z M106.22 7.48 l0 3.32 l3.22 0 c0.92 0 1.66 -0.74 1.66 -1.66 s-0.74 -1.66 -1.66 -1.66 l-3.22 0 z M128.32 20.14 c-0.48 0 -0.96 -0.06 -1.44 -0.16 c-1.48 -0.3 -2.94 -1.04 -4.24 -2.16 l1.18 -1.34 c1.06 0.92 2.24 1.54 3.42 1.78 c1 0.22 1.98 0.14 2.76 -0.22 c0.52 -0.24 1.42 -0.84 1.42 -2.06 c0 -1.5 -1.6 -2.04 -3.16 -2.34 c-0.14 -0.02 -2.38 -0.48 -3.28 -1 c-1.2 -0.72 -1.84 -1.8 -1.84 -3.12 c0 -0.74 0.24 -1.44 0.66 -2.06 c0.42 -0.56 1 -1.02 1.68 -1.34 c1 -0.48 2.18 -0.62 3.38 -0.42 c1.3 0.22 2.62 0.84 3.78 1.8 l-1.14 1.38 c-2.06 -1.7 -4.06 -1.74 -5.26 -1.18 c-0.82 0.38 -1.3 1.08 -1.3 1.8 c0 1.36 1.16 1.88 3 2.28 c0.76 0.18 2.34 0.44 3.28 0.98 c1.3 0.72 1.98 1.84 1.98 3.22 c0 0.82 -0.22 1.58 -0.68 2.24 c-0.42 0.6 -1.06 1.06 -1.78 1.42 c-0.76 0.38 -1.54 0.5 -2.42 0.5 z M151.57999999999998 20 l-1.58 -4.14 l-5.82 0 l-1.58 4.14 l-1.92 0 l5.48 -14.24 l1.86 0 l5.5 14.24 l-1.94 0 z M149.29999999999998 14.1 l-2.2 -5.76 l-2.22 5.76 l4.42 0 z M164.7 20 l0 -12.48 l-3.76 0 l0 -1.76 l9.32 0 l0 1.76 l-3.76 0 l0 12.48 l-1.8 0 z M179.88 20 l0 -14.24 l1.8 0 l0 14.24 l-1.8 0 z M198.27999999999997 5.32 c4.1 0 7.46 3.34 7.46 7.46 c0 4.1 -3.36 7.42 -7.46 7.42 s-7.44 -3.32 -7.44 -7.42 c0 -4.12 3.34 -7.46 7.44 -7.46 z M198.27999999999997 18.44 c3.12 0 5.64 -2.56 5.64 -5.66 c0 -3.12 -2.52 -5.7 -5.64 -5.7 s-5.64 2.58 -5.64 5.7 c0 3.1 2.52 5.66 5.64 5.66 z M223.92 20 l-7.62 -11.26 l0 11.26 l-1.8 0 l0 -14.24 l1.96 0 l7.6 11.26 l0 -11.26 l1.8 0 l0 14.24 l-1.94 0 z M240.44 20.14 c-0.48 0 -0.96 -0.06 -1.44 -0.16 c-1.48 -0.3 -2.94 -1.04 -4.24 -2.16 l1.18 -1.34 c1.06 0.92 2.24 1.54 3.42 1.78 c1 0.22 1.98 0.14 2.76 -0.22 c0.52 -0.24 1.42 -0.84 1.42 -2.06 c0 -1.5 -1.6 -2.04 -3.16 -2.34 c-0.14 -0.02 -2.38 -0.48 -3.28 -1 c-1.2 -0.72 -1.84 -1.8 -1.84 -3.12 c0 -0.74 0.24 -1.44 0.66 -2.06 c0.42 -0.56 1 -1.02 1.68 -1.34 c1 -0.48 2.18 -0.62 3.38 -0.42 c1.3 0.22 2.62 0.84 3.78 1.8 l-1.14 1.38 c-2.06 -1.7 -4.06 -1.74 -5.26 -1.18 c-0.82 0.38 -1.3 1.08 -1.3 1.8 c0 1.36 1.16 1.88 3 2.28 c0.76 0.18 2.34 0.44 3.28 0.98 c1.3 0.72 1.98 1.84 1.98 3.22 c0 0.82 -0.22 1.58 -0.68 2.24 c-0.42 0.6 -1.06 1.06 -1.78 1.42 c-0.76 0.38 -1.54 0.5 -2.42 0.5 z"></path></g></svg>